<svg width="27" height="27" viewBox="0 0 27 27" fill="none" xmlns="http://www.w3.org/2000/svg">
<path d="M24.4926 2.50737L24.4926 2.50736C23.6667 1.68142 22.5616 1.22639 20.8067 0.990441C19.0301 0.751593 16.7032 0.75 13.5 0.75C10.2968 0.75 7.9699 0.751593 6.19336 0.990441C4.4384 1.22639 3.33331 1.68143 2.50742 2.50735L2.5074 2.50737C1.68144 3.33331 1.2264 4.4384 0.990446 6.19335C0.751593 7.96988 0.75 10.2968 0.75 13.5C0.75 16.7032 0.751593 19.0301 0.990446 20.8066C1.2264 22.5616 1.68144 23.6667 2.50739 24.4926L2.50742 24.4926C3.33331 25.3186 4.4384 25.7736 6.19337 26.0096C7.9699 26.2484 10.2968 26.25 13.5 26.25C16.7032 26.25 19.0301 26.2484 20.8066 26.0096C22.5616 25.7736 23.6667 25.3186 24.4926 24.4926L24.4926 24.4926C25.3186 23.6667 25.7736 22.5616 26.0096 20.8066C26.2484 19.0301 26.25 16.7032 26.25 13.5C26.25 10.2968 26.2484 7.96987 26.0096 6.19335C25.7736 4.4384 25.3186 3.3333 24.4926 2.50737Z" stroke="#F2F2F2" stroke-width="1.5"/>
<path d="M8.64035 13.4999H13.5004M13.5004 13.4999H18.3604M13.5004 13.4999V8.63989M13.5004 13.4999V18.3599" stroke="#F2F2F2" stroke-width="1.5" stroke-linecap="round"/>
</svg>
