<svg width="33" height="33" viewBox="0 0 33 33" fill="none" xmlns="http://www.w3.org/2000/svg">
<circle cx="16.5" cy="16.5" r="16.5" fill="#747474" fill-opacity="0.7"/>
<path d="M9.07812 14.0083C9.07812 9.9483 9.9483 9.07812 14.0083 9.07812H18.9979C23.0579 9.07812 23.9281 9.9483 23.9281 14.0083V18.9979C23.9281 23.0579 23.0579 23.9281 18.9979 23.9281H14.0083C9.9483 23.9281 9.07812 23.0579 9.07812 18.9979V14.0083Z" stroke="white"/>
<path d="M20.6318 20.2126L17.1036 16.6844C14.2328 13.8135 13.0022 13.8135 10.1313 16.6844L9.07812 17.7376" stroke="white" stroke-linecap="round"/>
<path d="M23.9273 17.8778C22.2004 16.5549 21.0215 16.7407 19.1406 18.4352" stroke="white" stroke-linecap="round"/>
<path d="M20.6266 13.2C20.6266 13.6556 20.2572 14.025 19.8016 14.025C19.3459 14.025 18.9766 13.6556 18.9766 13.2C18.9766 12.7444 19.3459 12.375 19.8016 12.375C20.2572 12.375 20.6266 12.7444 20.6266 13.2Z" stroke="white"/>
</svg>
