<svg width="15" height="17" viewBox="0 0 15 17" fill="none" xmlns="http://www.w3.org/2000/svg">
<path fill-rule="evenodd" clip-rule="evenodd" d="M2.4375 7.21341V5.53012C2.4375 2.47592 4.70406 0 7.5 0C10.2959 0 12.5625 2.47592 12.5625 5.53012V7.21341C13.3986 7.28165 13.943 7.45378 14.341 7.88857C15 8.60847 15 9.76709 15 12.0843C15 14.4016 15 15.5602 14.341 16.2801C13.6819 17 12.6213 17 10.5 17H4.5C2.37868 17 1.31802 17 0.65901 16.2801C0 15.5602 0 14.4016 0 12.0843C0 9.76709 0 8.60847 0.65901 7.88857C1.05698 7.45378 1.60144 7.28165 2.4375 7.21341ZM3.5625 5.53012C3.5625 3.15463 5.32538 1.22892 7.5 1.22892C9.67463 1.22892 11.4375 3.15463 11.4375 5.53012V7.17162C11.1503 7.16867 10.8386 7.16867 10.5 7.16867H4.5C4.16137 7.16867 3.84976 7.16867 3.5625 7.17162V5.53012Z" fill="white" fill-opacity="0.4"/>
</svg>
