<svg width="19" height="17" viewBox="0 0 19 17" fill="none" xmlns="http://www.w3.org/2000/svg">
<path d="M2.43555 4.12857C2.43555 1.84842 4.28955 0 6.57658 0C8.86357 0 10.7176 1.84842 10.7176 4.12857C10.7176 6.40868 8.86357 8.25711 6.57658 8.25711C4.28955 8.25711 2.43555 6.40868 2.43555 4.12857Z" fill="white" fill-opacity="0.4"/>
<path d="M3.95963 10.1214L4.13317 10.0938C5.75209 9.83625 7.40177 9.83625 9.02067 10.0938L9.19421 10.1214C11.4754 10.4844 13.1538 12.4461 13.1538 14.7491C13.1538 15.9923 12.1431 16.9999 10.8963 16.9999H2.25756C1.01075 16.9999 0 15.9923 0 14.7491C0 12.4461 1.6785 10.4844 3.95963 10.1214Z" fill="white" fill-opacity="0.4"/>
<path d="M12.4231 0C12.0196 0 11.6924 0.326187 11.6924 0.728567C11.6924 1.13095 12.0196 1.45714 12.4231 1.45714C13.903 1.45714 15.1027 2.65318 15.1027 4.12857C15.1027 5.60396 13.903 6.8 12.4231 6.8C12.0196 6.8 11.6924 7.12619 11.6924 7.52855C11.6924 7.93092 12.0196 8.25711 12.4231 8.25711C14.7102 8.25711 16.5642 6.40868 16.5642 4.12857C16.5642 1.84842 14.7102 0 12.4231 0Z" fill="white" fill-opacity="0.4"/>
<path d="M13.6321 10.085C13.2286 10.085 12.9014 10.4111 12.9014 10.8135C12.9014 11.2159 13.2286 11.5421 13.6321 11.5421H14.5755C14.6539 11.5421 14.7324 11.5482 14.8098 11.5606C16.3816 11.8107 17.5382 13.1624 17.5382 14.7493C17.5382 15.1877 17.1819 15.543 16.7422 15.543H14.7514C14.3478 15.543 14.0207 15.8692 14.0207 16.2716C14.0207 16.6739 14.3478 17.0001 14.7514 17.0001H16.7422C17.989 17.0001 18.9997 15.9925 18.9997 14.7493C18.9997 12.4463 17.3212 10.4846 15.0401 10.1216C14.8864 10.0972 14.731 10.085 14.5755 10.085H13.6321Z" fill="white" fill-opacity="0.4"/>
</svg>
