<svg width="16" height="16" viewBox="0 0 16 16" fill="none" xmlns="http://www.w3.org/2000/svg">
<path d="M15.2341 1.28718L15.2341 1.28723L11.3828 14.942L11.3827 14.942L11.3816 14.9462C11.359 15.028 11.3118 15.1009 11.2463 15.1549C11.1808 15.2089 11.1003 15.2414 11.0157 15.248L11.0112 15.2484C10.9982 15.2495 10.9858 15.25 10.9738 15.25L10.9705 15.25C10.8919 15.2502 10.8149 15.228 10.7486 15.1859C10.6823 15.1437 10.6294 15.0835 10.5962 15.0123L10.5962 15.0123L10.5942 15.0082L8.11515 9.77461L11.6462 6.24363C11.7702 6.11955 11.8687 5.97223 11.9358 5.8101C12.003 5.64797 12.0376 5.4742 12.0376 5.29872C12.0376 5.12323 12.003 4.94946 11.9358 4.78733C11.8687 4.6252 11.7702 4.47789 11.6462 4.3538C11.5221 4.22972 11.3748 4.13128 11.2126 4.06413C11.0505 3.99697 10.8767 3.96241 10.7012 3.96241C10.5258 3.96241 10.352 3.99697 10.1899 4.06413C10.0277 4.13129 9.88042 4.22972 9.75633 4.3538L6.22532 7.88479L0.991675 5.40571L0.991652 5.4057C0.913911 5.36888 0.849262 5.3092 0.806345 5.23466C0.763428 5.16011 0.744287 5.07424 0.751481 4.98853C0.758675 4.90281 0.79186 4.82133 0.846602 4.75498C0.901345 4.68863 0.975036 4.64057 1.05783 4.61722L1.05785 4.61722L14.7128 0.765886L14.7128 0.765872C14.7851 0.745479 14.8615 0.744724 14.9342 0.763684C15.0068 0.782644 15.0732 0.820634 15.1263 0.87374C15.1794 0.92685 15.2174 0.993155 15.2363 1.06582C15.2553 1.13849 15.2545 1.2149 15.2341 1.28718Z" fill="#F2F2F2" stroke="#F2F2F2" stroke-width="1.5"/>
</svg>
