<svg width="14" height="16" viewBox="0 0 14 16" fill="none" xmlns="http://www.w3.org/2000/svg">
<path d="M12.0909 5H10.8182C9.76382 5 8.90909 4.16053 8.90909 3.125V1.875C8.90909 0.839469 8.05436 0 7 0H1.90909C0.854732 0 0 0.839469 0 1.875V14.125C0 15.1605 0.854732 16 1.90909 16H12.0909C13.1453 16 14 15.1605 14 14.125V6.875C14 5.83947 13.1453 5 12.0909 5ZM10.5 13.5H3.5C2.9728 13.5 2.54545 13.0803 2.54545 12.5625C2.54545 12.0447 2.9728 11.625 3.5 11.625H10.5C11.0272 11.625 11.4545 12.0447 11.4545 12.5625C11.4545 13.0803 11.0272 13.5 10.5 13.5ZM10.5 9.75H3.5C2.9728 9.75 2.54545 9.33028 2.54545 8.8125C2.54545 8.29472 2.9728 7.875 3.5 7.875H10.5C11.0272 7.875 11.4545 8.29472 11.4545 8.8125C11.4545 9.33028 11.0272 9.75 10.5 9.75Z" fill="white" fill-opacity="0.4"/>
</svg>
