<svg width="12" height="16" viewBox="0 0 12 16" fill="none" xmlns="http://www.w3.org/2000/svg">
<path fill-rule="evenodd" clip-rule="evenodd" d="M5.64687 16C8.98109 16 10.6482 16 11.134 14.9607C11.1758 14.8713 11.211 14.7785 11.2394 14.6831C11.5694 13.5734 10.3906 12.2871 8.03292 9.7146L6.45359 7.99999H4.84014L3.26082 9.7146C0.903165 12.2871 -0.275622 13.5734 0.054409 14.6831C0.0827255 14.7785 0.117979 14.8713 0.159767 14.9607C0.645577 16 2.31267 16 5.64687 16Z" fill="white" fill-opacity="0.4"/>
<path opacity="0.5" d="M0.612729 1.25107L0.61269 1.25115C0.581452 1.31795 0.555007 1.38752 0.533724 1.4592L0.533666 1.4594C0.438407 1.77971 0.526771 2.20623 1.05914 2.96556C1.58384 3.71395 2.44014 4.64988 3.62893 5.94699C3.6291 5.94717 3.62926 5.94735 3.62943 5.94753L5.05938 7.5H6.23436L7.66431 5.94753C7.66446 5.94737 7.66461 5.94721 7.66475 5.94705C8.85357 4.6499 9.7099 3.71396 10.2346 2.96556C10.767 2.20628 10.8554 1.77976 10.7601 1.45946L0.612729 1.25107ZM0.612729 1.25107C0.742435 0.973573 1.04894 0.749382 1.90706 0.624714C2.75668 0.501281 3.96279 0.499989 5.64687 0.499989C7.33096 0.499989 8.53708 0.501281 9.38671 0.624714M0.612729 1.25107L9.38671 0.624714M9.38671 0.624714C10.2448 0.749374 10.5513 0.973546 10.681 1.25102L9.38671 0.624714ZM10.6811 1.25107C10.7123 1.31785 10.7387 1.38751 10.7601 1.45939L10.6811 1.25107Z" stroke="white" stroke-opacity="0.8"/>
</svg>
