<svg width="13" height="16" viewBox="0 0 13 16" fill="none" xmlns="http://www.w3.org/2000/svg">
<path d="M12.8169 5.22927C12.0479 1.62341 9.09635 0 6.50367 0C6.50367 0 6.50367 0 6.49635 0C3.91097 0 0.952097 1.61561 0.183083 5.22146C-0.673819 9.24878 1.64055 12.6595 3.7352 14.8059C4.51154 15.6019 5.50762 16 6.50367 16C7.49973 16 8.49579 15.6019 9.2648 14.8059C11.3595 12.6595 13.6738 9.25659 12.8169 5.22927ZM6.50367 9.13951C5.22931 9.13951 4.19661 8.03902 4.19661 6.68098C4.19661 5.32293 5.22931 4.22244 6.50367 4.22244C7.77804 4.22244 8.81072 5.32293 8.81072 6.68098C8.81072 8.03902 7.77804 9.13951 6.50367 9.13951Z" fill="white" fill-opacity="0.4"/>
</svg>
