<svg width="15" height="18" viewBox="0 0 15 18" fill="none" xmlns="http://www.w3.org/2000/svg">
<path fill-rule="evenodd" clip-rule="evenodd" d="M7.7848 15.9935C7.6567 16.0875 7.5373 16.1728 7.4282 16.2493C7.3118 16.1721 7.1827 16.0833 7.0427 15.9832C6.3826 15.5109 5.5265 14.8176 4.68338 13.9529C2.95402 12.1792 1.5 9.9151 1.5 7.5C1.5 4.18629 4.18629 1.5 7.5 1.5C10.8137 1.5 13.5 4.18629 13.5 7.5C13.5 9.8892 11.9819 12.1468 10.1893 13.9393C9.3196 14.8091 8.4444 15.5099 7.7848 15.9935ZM15 7.5C15 13.5 7.5 18 7.5 18C7.125 18 0 13.5 0 7.5C0 3.35786 3.35786 0 7.5 0C11.6421 0 15 3.35786 15 7.5ZM9 7.5C9 8.3284 8.3284 9 7.5 9C6.6716 9 6 8.3284 6 7.5C6 6.67157 6.6716 6 7.5 6C8.3284 6 9 6.67157 9 7.5ZM10.5 7.5C10.5 9.1569 9.1569 10.5 7.5 10.5C5.8431 10.5 4.5 9.1569 4.5 7.5C4.5 5.84315 5.8431 4.5 7.5 4.5C9.1569 4.5 10.5 5.84315 10.5 7.5Z" fill="#FBFBFB" fill-opacity="0.4"/>
</svg>
