<svg width="20" height="6" viewBox="0 0 20 6" fill="none" xmlns="http://www.w3.org/2000/svg">
<path d="M15.7139 3.1358C15.7139 3.76311 16.2255 4.2716 16.8567 4.2716C17.4879 4.2716 17.9996 3.76311 17.9996 3.1358C17.9996 2.5085 17.4879 2 16.8567 2C16.2255 2 15.7139 2.5085 15.7139 3.1358Z" fill="white" stroke="white" stroke-width="3" stroke-linecap="round" stroke-linejoin="round"/>
<path d="M8.85742 3.1358C8.85742 3.76311 9.36908 4.2716 10.0003 4.2716C10.6315 4.2716 11.1431 3.76311 11.1431 3.1358C11.1431 2.5085 10.6315 2 10.0003 2C9.36908 2 8.85742 2.5085 8.85742 3.1358Z" fill="white" stroke="white" stroke-width="3" stroke-linecap="round" stroke-linejoin="round"/>
<path d="M2 3.1358C2 3.76311 2.51168 4.2716 3.14286 4.2716C3.77403 4.2716 4.28571 3.76311 4.28571 3.1358C4.28571 2.5085 3.77403 2 3.14286 2C2.51168 2 2 2.5085 2 3.1358Z" fill="white" stroke="white" stroke-width="3" stroke-linecap="round" stroke-linejoin="round"/>
</svg>
