<svg width="17" height="17" viewBox="0 0 17 17" fill="none" xmlns="http://www.w3.org/2000/svg">
<path d="M16.6887 7.74881L9.25119 0.311313C9.05197 0.112094 8.78209 0 8.5 0H1.0625C0.475203 0 0 0.475203 0 1.0625V8.5C0 8.78209 0.112094 9.05197 0.311313 9.25119L7.74881 16.6887C7.95627 16.8961 8.22827 17 8.5 17C8.77173 17 9.04373 16.8961 9.25119 16.6887L16.6887 9.25119C17.1039 8.83628 17.1039 8.16372 16.6887 7.74881ZM5.3125 7.43856C4.13897 7.43856 3.1875 6.48709 3.1875 5.31356C3.1875 4.14003 4.13897 3.18856 5.3125 3.18856C6.48603 3.18856 7.4375 4.14003 7.4375 5.31356C7.4375 6.48709 6.48603 7.43856 5.3125 7.43856Z" fill="white" fill-opacity="0.4"/>
</svg>
