<svg width="38" height="36" viewBox="0 0 38 36" fill="none" xmlns="http://www.w3.org/2000/svg">
<rect x="8.42773" y="33.5" width="21" height="2" rx="1" fill="#D7D7D7" stroke="#D7D7D7"/>
<rect x="11.4277" y="29.5" width="15" height="3" fill="#D7D7D7" stroke="#D7D7D7"/>
<rect x="11.4277" y="28.5" width="15" height="3" rx="0.5" fill="#D7D7D7" stroke="#D7D7D7"/>
<rect x="14.4277" y="26.5" width="9" height="1" rx="0.5" fill="#D7D7D7" stroke="#D7D7D7"/>
<rect x="14.4277" y="27.5" width="9" height="1" fill="#D7D7D7" stroke="#D7D7D7"/>
<path d="M15.6581 25.75L18.9277 21.7858L22.1973 25.75H15.6581Z" fill="#D7D7D7" stroke="#D7D7D7"/>
<rect x="17.4277" y="18.5" width="3" height="6" fill="#D7D7D7" stroke="#D7D7D7"/>
<path d="M26.9212 14.0038L18.9856 23.2492L11.0086 14.0395L26.9212 14.0038Z" fill="#D7D7D7" stroke="#D7D7D7"/>
<rect x="11.4277" y="2.5" width="15" height="11" fill="#D7D7D7" stroke="#D7D7D7"/>
<path d="M28.4686 1.36524C28.4688 1.36525 28.4675 1.3669 28.4642 1.37017C28.4668 1.36686 28.4684 1.36523 28.4686 1.36524ZM27.9748 1.38738C28.087 1.42719 28.1786 1.46513 28.252 1.5C28.1786 1.53487 28.087 1.57281 27.9748 1.61262C27.5133 1.77629 26.8176 1.93224 25.9246 2.06619C24.1463 2.33294 21.6723 2.5 18.9277 2.5C16.1832 2.5 13.7091 2.33294 11.9308 2.06619C11.0378 1.93224 10.3422 1.77629 9.88071 1.61262C9.76844 1.57281 9.67684 1.53487 9.60351 1.5C9.67684 1.46513 9.76844 1.42719 9.88071 1.38738C10.3422 1.22371 11.0378 1.06776 11.9308 0.933808C13.7091 0.667062 16.1832 0.5 18.9277 0.5C21.6723 0.5 24.1463 0.667062 25.9246 0.933808C26.8176 1.06776 27.5133 1.22371 27.9748 1.38738ZM9.38687 1.36524C9.38706 1.36523 9.38872 1.36686 9.39126 1.37016C9.38795 1.3669 9.38668 1.36525 9.38687 1.36524ZM9.38687 1.63476C9.38668 1.63475 9.38795 1.6331 9.39126 1.62984C9.38872 1.63314 9.38706 1.63477 9.38687 1.63476ZM28.4642 1.62984C28.4675 1.6331 28.4688 1.63475 28.4686 1.63476C28.4684 1.63477 28.4668 1.63314 28.4642 1.62984Z" fill="#D7D7D7" stroke="#D7D7D7"/>
<rect x="23.6581" y="1.81248" width="4.74094" height="9.01751" transform="rotate(2.42794 23.6581 1.81248)" fill="#D7D7D7" stroke="#D7D7D7"/>
<path d="M27.9196 12.2908C27.8185 12.7678 27.629 13.1535 27.4288 13.3937C27.2122 13.6537 27.0788 13.6459 27.0645 13.6429C27.0503 13.6399 26.9252 13.5929 26.8327 13.2674C26.7471 12.9666 26.7303 12.5372 26.8314 12.0602C26.9325 11.5832 27.122 11.1975 27.3222 10.9573C27.5388 10.6973 27.6722 10.7051 27.6864 10.7081C27.7006 10.7111 27.8258 10.7581 27.9183 11.0836C28.0039 11.3844 28.0207 11.8138 27.9196 12.2908Z" fill="#D7D7D7" stroke="#D7D7D7"/>
<mask id="path-13-inside-1_1984_505" fill="white">
<ellipse cx="26.7812" cy="13.3875" rx="0.967825" ry="1.69543" transform="rotate(41.9365 26.7812 13.3875)"/>
</mask>
<ellipse cx="26.7812" cy="13.3875" rx="0.967825" ry="1.69543" transform="rotate(41.9365 26.7812 13.3875)" fill="#D7D7D7"/>
<path d="M26.7573 13.366C26.539 13.6089 26.3165 13.7403 26.1744 13.7875C26.0011 13.8449 26.1327 13.7398 26.3165 13.9048L24.9799 15.3926C25.5612 15.9149 26.3064 15.8508 26.8038 15.6858C27.3323 15.5106 27.8375 15.1562 28.2451 14.7026L26.7573 13.366ZM26.3165 13.9048C26.5002 14.0699 26.4097 14.212 26.4483 14.0336C26.48 13.8872 26.5869 13.6519 26.8052 13.409L25.3174 12.0724C24.9099 12.526 24.6114 13.0661 24.4936 13.6103C24.3827 14.1225 24.3985 14.8703 24.9799 15.3926L26.3165 13.9048ZM26.8052 13.409C27.0234 13.1661 27.2459 13.0347 27.3881 12.9875C27.5613 12.9301 27.4297 13.0352 27.246 12.8702L28.5826 11.3824C28.0012 10.8601 27.256 10.9242 26.7586 11.0891C26.2301 11.2644 25.7249 11.6188 25.3174 12.0724L26.8052 13.409ZM27.246 12.8702C27.0622 12.7051 27.1528 12.563 27.1141 12.7414C27.0825 12.8878 26.9755 13.1231 26.7573 13.366L28.2451 14.7026C28.6526 14.249 28.951 13.7089 29.0689 13.1647C29.1797 12.6525 29.1639 11.9047 28.5826 11.3824L27.246 12.8702Z" fill="#D7D7D7" mask="url(#path-13-inside-1_1984_505)"/>
<rect x="-0.47837" y="0.520733" width="4.74094" height="9.03907" transform="matrix(-0.999102 0.0423628 0.0423628 0.999102 13.6964 1.29002)" fill="#D7D7D7" stroke="#D7D7D7"/>
<path d="M9.93588 12.2908C10.037 12.7678 10.2265 13.1535 10.4267 13.3937C10.6433 13.6537 10.7767 13.6459 10.7909 13.6429C10.8051 13.6399 10.9303 13.5929 11.0228 13.2674C11.1084 12.9666 11.1251 12.5372 11.0241 12.0602C10.923 11.5832 10.7335 11.1975 10.5333 10.9573C10.3167 10.6973 10.1833 10.7051 10.169 10.7081C10.1548 10.7111 10.0297 10.7581 9.93715 11.0836C9.85161 11.3844 9.83482 11.8138 9.93588 12.2908Z" fill="#D7D7D7" stroke="#D7D7D7"/>
<mask id="path-17-inside-2_1984_505" fill="white">
<ellipse cx="0.967825" cy="1.69543" rx="0.967825" ry="1.69543" transform="matrix(-0.743886 0.668307 0.668307 0.743886 10.6611 11.4795)"/>
</mask>
<ellipse cx="0.967825" cy="1.69543" rx="0.967825" ry="1.69543" transform="matrix(-0.743886 0.668307 0.668307 0.743886 10.6611 11.4795)" fill="#D7D7D7"/>
<path d="M11.0982 13.366C11.3164 13.6089 11.5389 13.7403 11.6811 13.7875C11.8544 13.8449 11.7227 13.7398 11.539 13.9048L12.8756 15.3926C12.2943 15.9149 11.549 15.8508 11.0516 15.6858C10.5231 15.5106 10.0179 15.1562 9.61041 14.7026L11.0982 13.366ZM11.539 13.9048C11.3553 14.0699 11.4458 14.212 11.4072 14.0336C11.3755 13.8872 11.2686 13.6519 11.0503 13.409L12.5381 12.0724C12.9456 12.526 13.2441 13.0661 13.3619 13.6103C13.4728 14.1225 13.457 14.8703 12.8756 15.3926L11.539 13.9048ZM11.0503 13.409C10.8321 13.1661 10.6096 13.0347 10.4674 12.9875C10.2941 12.9301 10.4258 13.0352 10.6095 12.8702L9.27287 11.3824C9.85422 10.8601 10.5995 10.9242 11.0968 11.0891C11.6254 11.2644 12.1306 11.6188 12.5381 12.0724L11.0503 13.409ZM10.6095 12.8702C10.7932 12.7051 10.7027 12.563 10.7413 12.7414C10.773 12.8878 10.8799 13.1231 11.0982 13.366L9.61041 14.7026C9.20288 14.249 8.90444 13.7089 8.78661 13.1647C8.67573 12.6525 8.69153 11.9047 9.27287 11.3824L10.6095 12.8702Z" fill="#D7D7D7" mask="url(#path-17-inside-2_1984_505)"/>
<path d="M10.3395 4.27421L5.42352 3.99687L3.92352 4.49687L2.92352 5.49687L2.42352 6.99687L2.92352 8.49687L3.92352 9.99687L5.92352 11.4969L7.42708 12.4992L9.42655 13.4991L10.3392 14.4996L9.92762 15.4997L8.42773 15.4998" stroke="#D7D7D7" stroke-width="2"/>
<path d="M27.7262 4.45402L32.4572 4.29097L33.9138 4.81541L34.8997 5.81982L35.4148 7.30418L34.9664 8.7663L34.0361 10.2173L32.1422 11.6461L30.7157 12.597L28.8111 13.5346L27.954 14.497L28.3728 15.4884L29.8181 15.5218" stroke="#D7D7D7" stroke-width="2"/>
</svg>
