<svg width="12" height="16" viewBox="0 0 12 16" fill="none" xmlns="http://www.w3.org/2000/svg">
<path fill-rule="evenodd" clip-rule="evenodd" d="M5.64708 0C2.31286 0 0.645752 0 0.159934 1.03935C0.118178 1.12869 0.0829482 1.22149 0.0545757 1.31688C-0.275439 2.42664 0.90338 3.71289 3.26103 6.2854L4.84035 8.00001H6.4538L8.03313 6.2854C10.3908 3.71289 11.5696 2.42664 11.2395 1.31688C11.2112 1.22149 11.176 1.12869 11.1342 1.03935C10.6484 0 8.98127 0 5.64708 0Z" fill="white" fill-opacity="0.4"/>
<path opacity="0.5" d="M10.6812 14.7489L10.6813 14.7488C10.7125 14.682 10.7389 14.6125 10.7602 14.5408L10.7603 14.5406C10.8555 14.2203 10.7672 13.7938 10.2348 13.0344C9.71011 12.286 8.8538 11.3501 7.66502 10.053C7.66485 10.0528 7.66468 10.0527 7.66452 10.0525L6.23456 8.5H5.05959L3.62964 10.0525C3.62949 10.0526 3.62934 10.0528 3.62919 10.053C2.44038 11.3501 1.58405 12.286 1.05933 13.0344C0.52699 13.7937 0.438593 14.2202 0.533813 14.5405L10.6812 14.7489ZM10.6812 14.7489C10.5515 15.0264 10.245 15.2506 9.38689 15.3753C8.53726 15.4987 7.33116 15.5 5.64708 15.5C3.96298 15.5 2.75687 15.4987 1.90724 15.3753M10.6812 14.7489L1.90724 15.3753M1.90724 15.3753C1.04917 15.2506 0.742642 15.0265 0.612919 14.749L1.90724 15.3753ZM0.612895 14.7489C0.581694 14.6821 0.555225 14.6125 0.533834 14.5406L0.612895 14.7489Z" stroke="white" stroke-opacity="0.8"/>
</svg>
