<svg width="27" height="27" viewBox="0 0 27 27" fill="none" xmlns="http://www.w3.org/2000/svg">
<path d="M11.9634 23.5659L11.266 23.0367C10.5151 22.5076 10.5151 21.4493 10.5151 20.9201V19.3855C10.5151 18.9622 10.1396 18.5918 9.71048 18.5918H6.4921C6.06298 18.5918 5.6875 18.9622 5.6875 19.3855V23.4601C5.6875 24.8888 6.54574 26 7.88673 26H10.5151C12.0706 26 12.1779 24.9417 12.1779 24.9417C12.1779 24.9417 12.4461 23.9892 11.9634 23.5659Z" fill="white" stroke="white" stroke-width="1.5"/>
<path d="M23.4895 9.29499V2.27143C23.4895 2.27143 23.4895 2.27143 23.4895 2.21979C23.4895 0.980336 21.9205 0.61883 21.0837 1.44513L16.4289 5.78321C15.6967 6.40293 14.7552 6.66115 13.8138 6.66115H5.86402C3.14435 6.7128 1 9.03677 1 11.7222V11.8255C1 14.511 3.14435 16.5251 5.86402 16.5251H13.8138C14.8075 16.5251 15.749 16.9383 16.4812 17.558L21.0837 21.9994C21.9205 22.8257 23.4895 22.5158 23.4895 21.2763C23.4895 21.2763 23.4895 21.2763 23.4895 21.2247V14.2528C25.0586 14.2528 26 13.1683 26 11.7739C26 10.3795 25.0586 9.29499 23.4895 9.29499Z" fill="white" stroke="white" stroke-width="1.5"/>
</svg>
