<svg width="15" height="15" viewBox="0 0 15 15" fill="none" xmlns="http://www.w3.org/2000/svg">
<path d="M15 7.5C15 11.6421 11.6421 15 7.5 15C3.35787 15 0 11.6421 0 7.5C0 3.35787 3.35787 0 7.5 0C11.6421 0 15 3.35787 15 7.5ZM1.36829 7.5C1.36829 10.8865 4.11355 13.6317 7.5 13.6317C10.8865 13.6317 13.6317 10.8865 13.6317 7.5C13.6317 4.11355 10.8865 1.36829 7.5 1.36829C4.11355 1.36829 1.36829 4.11355 1.36829 7.5Z" fill="white" fill-opacity="0.4"/>
<path d="M7.50018 2.72705C7.12361 2.72705 6.81836 3.03231 6.81836 3.40887V7.81798C6.81836 7.81798 6.81836 7.99573 6.90475 8.12944C6.96256 8.24282 7.0527 8.34135 7.17113 8.40973L10.321 10.2283C10.6471 10.4166 11.0641 10.3048 11.2524 9.97873C11.4406 9.65262 11.3289 9.23562 11.0028 9.04737L8.182 7.41878V3.40887C8.182 3.03231 7.87675 2.72705 7.50018 2.72705Z" fill="white" fill-opacity="0.4"/>
</svg>
