<svg width="20" height="28" viewBox="0 0 20 28" fill="none" xmlns="http://www.w3.org/2000/svg">
<path d="M10.0417 19.0833C15.0352 19.0833 19.0833 15.0352 19.0833 10.0417C19.0833 5.04809 15.0352 1 10.0417 1C5.04809 1 1 5.04809 1 10.0417C1 15.0352 5.04809 19.0833 10.0417 19.0833Z" fill="white" stroke="white" stroke-width="1.5"/>
<path d="M4.03522 17.7915L3.2126 20.792C2.40099 23.7523 1.99519 25.2324 2.53671 26.0428C2.72649 26.3267 2.98108 26.5547 3.27651 26.705C4.11949 27.1343 5.42105 26.4561 8.02413 25.0998C8.89032 24.6484 9.32342 24.4228 9.78351 24.3737C9.95414 24.3555 10.1259 24.3555 10.2966 24.3737C10.7567 24.4228 11.1897 24.6484 12.0559 25.0998C14.659 26.4561 15.9606 27.1343 16.8036 26.705C17.099 26.5547 17.3536 26.3267 17.5433 26.0428C18.0849 25.2324 17.6791 23.7523 16.8675 20.792L16.0449 17.7915" fill="white"/>
<path d="M4.03522 17.7915L3.2126 20.792C2.40099 23.7523 1.99519 25.2324 2.53671 26.0428C2.72649 26.3267 2.98108 26.5547 3.27651 26.705C4.11949 27.1343 5.42105 26.4561 8.02413 25.0998C8.89032 24.6484 9.32342 24.4228 9.78351 24.3737C9.95414 24.3555 10.1259 24.3555 10.2966 24.3737C10.7567 24.4228 11.1897 24.6484 12.0559 25.0998C14.659 26.4561 15.9606 27.1343 16.8036 26.705C17.099 26.5547 17.3536 26.3267 17.5433 26.0428C18.0849 25.2324 17.6791 23.7523 16.8675 20.792L16.0449 17.7915" stroke="white" stroke-width="1.5" stroke-linecap="round"/>
</svg>
