<svg width="20" height="28" viewBox="0 0 20 28" fill="none" xmlns="http://www.w3.org/2000/svg">
<path d="M10.0417 19.0833C15.0352 19.0833 19.0833 15.0352 19.0833 10.0417C19.0833 5.04809 15.0352 1 10.0417 1C5.04809 1 1 5.04809 1 10.0417C1 15.0352 5.04809 19.0833 10.0417 19.0833Z" stroke="white" stroke-width="1.5"/>
<path d="M4.0362 17.7915L3.21358 20.792C2.40197 23.7523 1.99617 25.2324 2.53768 26.0428C2.72747 26.3267 2.98206 26.5547 3.27749 26.705C4.12047 27.1343 5.42203 26.4561 8.02511 25.0998C8.8913 24.6484 9.3244 24.4228 9.78449 24.3737C9.95512 24.3555 10.1269 24.3555 10.2975 24.3737C10.7576 24.4228 11.1907 24.6484 12.0569 25.0998C14.66 26.4561 15.9616 27.1343 16.8046 26.705C17.1 26.5547 17.3546 26.3267 17.5443 26.0428C18.0859 25.2324 17.6801 23.7523 16.8685 20.792L16.0458 17.7915" stroke="white" stroke-width="1.5" stroke-linecap="round"/>
</svg>
