<svg width="20" height="18" viewBox="0 0 20 18" fill="none" xmlns="http://www.w3.org/2000/svg">
<path d="M4.75579 12.102C4.43036 12.3949 4.43036 12.8698 4.75579 13.1626L8.83262 16.8282C9.48362 17.4135 10.5385 17.4133 11.1891 16.8277L15.2644 13.1599C15.5899 12.8671 15.5899 12.3922 15.2644 12.0993C14.939 11.8064 14.4113 11.8064 14.0859 12.0993L10.5979 15.2385C10.2725 15.5314 9.74479 15.5314 9.41937 15.2385L5.9343 12.102C5.60887 11.8091 5.08123 11.8091 4.75579 12.102Z" fill="white" fill-opacity="0.4"/>
<path d="M15.2644 5.91506C15.5899 5.62217 15.5899 5.1473 15.2644 4.8544L11.1875 1.18882C10.5365 0.603524 9.48179 0.603756 8.83112 1.18934L4.7558 4.85711C4.43036 5.15 4.43036 5.62488 4.7558 5.91777C5.08123 6.21067 5.60887 6.21067 5.93431 5.91777L9.42237 2.77854C9.74779 2.48564 10.2755 2.48564 10.6009 2.77854L14.0859 5.91506C14.4113 6.20796 14.939 6.20796 15.2644 5.91506Z" fill="white" fill-opacity="0.4"/>
</svg>
