<svg width="17" height="17" viewBox="0 0 17 17" fill="none" xmlns="http://www.w3.org/2000/svg">
<path d="M8.5 0C13.1944 0 17 3.80558 17 8.5C17 13.1944 13.1944 17 8.5 17C3.80558 17 0 13.1944 0 8.5C0 3.80558 3.80558 0 8.5 0ZM10.2003 9.68974L8.87068 10.7533C8.67289 10.9115 8.65657 11.2066 8.83566 11.3857L9.88847 12.4385C10.0927 12.6427 10.2416 12.8958 10.321 13.1736L10.4697 13.6943C10.6038 14.1632 10.9328 14.5079 11.334 14.6831C12.1518 14.3076 12.8823 13.7748 13.4866 13.1231L13.2878 11.5278C13.2173 10.9637 12.8696 10.4723 12.3612 10.2181L11.1114 9.59319C10.8148 9.44495 10.4592 9.4826 10.2003 9.68974ZM8.50016 1.70009C6.30854 1.70009 4.35906 2.73691 3.11549 4.34682L2.97516 4.53509V5.96731C2.97516 7.03494 3.63922 7.98335 4.62848 8.35453L4.77927 8.40582L5.87628 8.74131C7.04332 9.09833 8.17967 8.1486 8.06664 6.95998L8.05043 6.83621L7.90194 5.94517C7.83327 5.53319 8.07367 5.13776 8.4594 5.00313L8.55091 4.9768L9.07094 4.85794C9.941 4.65906 10.6134 3.96809 10.7885 3.09292C10.8572 2.74906 10.8441 2.406 10.7616 2.08517C10.0541 1.83576 9.29296 1.70009 8.50016 1.70009Z" fill="white" fill-opacity="0.4"/>
</svg>
